<svg xmlns="http://www.w3.org/2000/svg" viewBox="0 0 589.302 1265.667"><path fill-rule="evenodd" clip-rule="evenodd" fill="#ddd" d="M34.2 1265.7c-.3-2.3 2-2.7 3-3.5 13-9 26.2-17.6 39.2-26.5 24.2-16.6 48.3-33 72.4-49.8 26-18 52-36.3 78-54.4l45.4-31.3c1.2-1 2.5-1.5 3.8-2.2 1.6-.7 3.7-2 2.4-4-4.4-6.6-.2-12 2.4-17 12.5-25.4 25.6-50.5 38-76 4.6-9.2 10.7-17.4 16.2-26 12-18.7 24.5-37.3 36.8-56l1.4-2c6-7.4 5.7-7.2 1-15.5-5.3-9.4-10-19-15.2-28.4-2-3.6-4.4-7.2-7-12-1.5 12.7-.2 24.6-1.7 36.3-3.6-6.5-5.2-13-5.6-20.3-.5-11.5-3.3-22.8-6.4-35.4-7.2 18.8-11 37.3-19.8 54.6-1-2.7-.7-5.3-.2-7.7 1.7-8 2.7-16 5-23.7.4-1 .5-2 .5-3 .2-13.2.6-26.3.4-39.5 0-7.8-4-15-5-22.6-1.4-10-7.7-18.4-10-28.2-1-3-3.4-6.3-6.7-5.8-14.5 2.5-26-5.4-38.3-10.5-13.2-5.5-26.2-11.8-39.3-17.6-5-2.2-8-6.8-12.4-10-16.4-11.8-27-28.6-39-44.3-2-2.3-3-5-3.4-7.8-1.6-16.4-4.4-32.6-4.5-49 0-12.8-1-25.4-1.4-38-.2-7.3 1.2-14.5 3-21.6 1-5 .3-10.4 2.3-15.3 2.8-6.6 5-13.2 10.4-18.3 3.3-3 6.4-5.4 11-2h.8c2.8.6 6.2 1.7 8-.5 1-1.2-.6-4.8-2-7-11.5-20.6-19.6-42.6-28-64.6-4.6-12-8.4-24.4-12.3-36.7-.2-.7-.6-1.4-1.2-2.7-16.7 19.6-30.2 41.2-48 60.6-1.7-9.2-.7-17 1.7-24.8 3-9.8 5.3-19.8 8-29.6 3-9.8 6-19.6 8.7-29.5.5-2 2-4.2.3-5.5-2-1.5-4.4-.4-6.2 1.5-11.5 11.6-23.2 23-34.5 35-8 8-15.2 17-22.7 25.5-1 1-1.8 2.2-4.2 3C64.6 433 73 411 81 389l-1.5-.7-11.6 6.5c-1 .7-2 2.3-3.4 1.2-1.3-1-.2-2.4.2-3.6 5-16 15-29.4 22.7-44 7-13.3 13-26.8 16-41.6 1-5 2.8-9.8 3.2-15.6-6.7 3-11.8 7.4-17.3 11l-10.2 7.2c-.8.6-1.5 1.7-2.5 1-1-1-.4-2-.3-3 1.8-13.3 9-24 15.8-35 5.7-9.3 13.4-17 19.2-26 3.4-5 3.3-5.2-2.4-5.8-14.3-1.3-28.7-.7-43-.5-6.2.2-12-1.8-18.3-1.5-1.4 0-2.5-1.2-3-2.3-.7-2 1.3-2.6 2.3-3.5 12.3-10.8 26-20 38.5-30.5 18.4-15.2 39.4-26 60-37.8 14.2-8.3 28.4-16.8 43-24.5 6.3-3.4 12.7-6.5 19.2-9.3 2-1 3.6-2 3.5-4 0-2.6-2.2-3-4.3-3.4-17.5-2.2-35-3.7-52.4-3.5-2 0-4.3.7-6.4-1.3 6.4-4 13.4-6.5 20-9.8 15.6-8 32.4-11.7 49.6-14.6 17.7-3 35.7-3.2 53.2-7.8 4-1 4-2 2.4-5.3-2.5-5.6-6.7-8-12-10.2-8-3.5-15.8-7.3-23.8-10.7-3.3-1.3-7-1.5-10.3-4.6.4-.2.8-.6 1.3-.6 13-1 26-2.2 39 1 6.8 1.8 14 2 21 2.6 15 1.3 29.5 4.7 42.7 12.7 1.8 1.2 4.2 1.3 6 2.3 3.3 1.5 5 0 6.5-2.5 4.4-7 7-14.5 9.2-22.2 3.4-11.3 8-22 13.4-32.4 1.6-3 5-3.8 7.8-5 1.5-.7 2.4.3 2.7 2 1.5 7.5 2 15 .6 22.7-2 10.8-1 21.8-1 32.8 0 2.2 1.3 3 3 3.8 2.2 1 3.8.5 5-1 11.4-14 27-23.4 38.6-37.2 2.6-3 6.3-5 9.8-6.7 8.7-4.7 17.5-9.4 26.4-14 5.6-2.7 12-3.4 18-4.7 11.2-2.5 22.5-4 34-6 .2 5-3.2 8.6-5.4 12.5-7 13-15.8 25-22.5 38-.4 1-.8 1.8-1 2.8-1.4 3.4-.5 4.5 3.3 3.7 9.7-2 18.5-6.3 27.4-10.3 9.8-4.4 20-8 30-11.5 11.6-3.7 23-8 34.6-11.7 3.7-1.2 7.3-3 11.4-2.8v16c-7.6 9-17 16.3-25 24.8-1.6 1.6-3.3 3-2.5 5.5.7 2.3 2.6 3 4.8 3.7 7.6 2.4 15 .5 22.7 0v208c-4 1.4-7-1-10.5-1.8-13.8-3.2-27.3-2.8-41 1.4-18.4 5.5-32.3 16.4-42.7 32-9.3 14-13.6 29.8-12.5 46.7.4 5.4-1.8 7-6.2 7.3-3.5.3-7 1-10.3 1.8-9 2-18 2.5-25.3-5-2.3-2.5-5.7-4-8.4-6-3.6-2.8-6-2-7.7 2-2 5-4.4 10-6.5 15-2 5-6 7.7-11 9-3.7.7-7.6 1.2-11 2.8-4.4 2-5.7 0-7.3-3.4-2.6-5.7-6-11-10.2-15.6-10.3-11.7-22.6-19.5-37.6-24.2-21.4-6.6-41.2-3.5-60.2 6.6-16 8.6-27.3 21.7-34.2 39-5.5 14-7.7 28-4.6 42.8 1 5 1 8-5 8.8-1.7.2-3.4 1.2-5 1.7-13.3 3.8-16 8.3-15.8 22.3.4 26.5 1 53 1 79.4.2 4.3 2 6.7 5.6 8.5 1.4-2.2 1-4.4 1-6.5v-80c0-1.8-.8-4.2 1.6-5.3 6.5-3 13-5.8 19.6-8.5 1.6-.7 3-1.2 4.4 1.4 11.5 22 29.7 35.4 54 41 21.6 4.7 41.7.2 59.2-12 25.8-18 37-43.6 34-75-.5-4 .8-6 3.7-7 2.4-.6 4.7-1.7 6.8-2.7 7.3-3.4 16-5 18.5-14.7.6-2.3 1.8-4.4 3-6.6 2.3-5 4-5.7 9-2.6l4 2.7c5.8 3.6 11.6 6.5 18.7 4.7 6.6-1.8 13.4-3 20-5.2 3.4-1 5-.3 6 3 4.2 13.5 12 24.8 22.5 34.4 9.8 8.8 21.2 14.4 33.8 17.7 12 3.3 24.4 3 36.5 0 3.4-1 7.5-1 10.2-4v190c-1.5 1.3-2 0-2.3-1l-9-18c-9.6-19-18-38.2-29-56-3.4-5.3-10-8-15-5.3-13.4 6.3-27.4 11-41 17-14 6.5-29 10-44 12.8-9.2 1.6-18.8 1-28.2 2-4.8.7-7 2.7-7.8 7.3-2.4 14.3-2.3 29-3 43.3-1.7 29 1 58 2.8 86.8 1.3 21.4 4 42.7 5.5 64.2.5 7.7 3.3 15.2 6 22.4 1.6 4.6 6.6 5.7 10.7 2.8 9.7-7 19.7-13.3 30.5-18.2 19.4-8.7 39-16.7 58.6-25 6-2.6 12-4.2 18.4-4.2 11.8 0 23.7 0 35.5.3 3.7 0 7.5-.6 11.2.7v511.5c0 3.7-.8 4.6-4.5 4.6H34.2z"/><path fill-rule="evenodd" clip-rule="evenodd" fill="#FCFCFC" d="M589.2 749.7c-3.7-1.3-7.5-.8-11.3-.8-12-.3-23.8-.3-35.6-.4-6.4 0-12.4 1.6-18.2 4-19.6 8.5-39.3 16.5-58.7 25.2-10.8 5-20.8 11.3-30.5 18.2-4 3-9 1.8-10.8-2.8-2.6-7.2-5.4-14.7-6-22.4-1.4-21.5-4-42.8-5.4-64.2-1.8-29-4.5-58-3-86.8 1-14.4.8-29 3.2-43.3.8-4.6 3-6.6 7.8-7.2 9.4-1 19-.5 28.2-2 15-3 30-6.4 44-12.8 13.6-6 27.6-10.8 41-17 5-2.7 11.6 0 15 5 11 18 19.4 37.3 29 56l9 18.2c.3 1 .7 2.3 2.2 1v132zM589.2 427.7c-2.7 3-6.8 3-10.2 4-12 3-24.5 3.3-36.5 0-12.6-3.3-24-9-33.8-17.8-10.6-9.7-18.3-21-22.5-34.6-1-3.2-2.6-4-6-3-6.6 2.2-13.4 3.5-20 5.3-7 1.8-13-1-18.6-4.6-1.4-.8-2.7-1.8-4.2-2.6-4.8-3-6.6-2.6-9 2.6-1 2.2-2.3 4.3-3 6.6-2.3 9.6-11 11.3-18.3 14.7-2 1-4.3 2-6.6 2.8-3 1-4.2 3-4 7 3.3 31.4-8 57-33.8 75-17.5 12.2-37.6 16.7-59.2 11.8-24.3-5.4-42.5-18.8-54-41-1.4-2.5-2.8-2-4.4-1.3-6.6 2.7-13 5.6-19.6 8.4-2.4 1-1.6 3.4-1.6 5.2v80c0 2 .4 4.3-1 6.5-3.5-1.8-5.4-4.2-5.5-8.5-.2-26.5-.7-53-1-79.4-.4-14 2.4-18.5 15.6-22.3 1.6-.5 3.3-1.5 5-1.7 6-.7 6-4 5-8.8-3-14.7-1-29 4.6-43 7-17 18.2-30.2 34.2-38.8 19-10 38.8-13.2 60-6.6 15 4.7 27.4 12.5 37.7 24.2 4 4.7 7.6 10 10.2 15.6 1.6 3.5 3 5.4 7.3 3.4 3.4-1.6 7.4-2 11-3 5-1 9-3.7 11-8.7l6.7-15c1.6-4 4-4.8 7.6-2 2.7 2 6 3.5 8.4 6 7.4 7.5 16.2 7 25.3 5 3.4-.7 6.8-1.4 10.3-1.7 4.4-.2 6.6-2 6.2-7.2-1-16.8 3.2-32.6 12.6-46.7 10.4-15.5 24.3-26.4 42.6-32 13.8-4 27.3-4.5 41-1.4 3.6.7 6.8 3 10.6 1.7v146z"/></svg>